<svg xmlns="http://www.w3.org/2000/svg" xmlns:xlink="http://www.w3.org/1999/xlink" width="500" zoomAndPan="magnify" viewBox="0 0 375 374.999991" height="300" preserveAspectRatio="xMidYMid meet" version="1.0"><defs><g/><clipPath id="169452558d"><path d="M 9.125 91.792969 L 362.410156 91.792969 L 362.410156 130.945312 L 9.125 130.945312 Z M 9.125 91.792969 " clip-rule="nonzero"/></clipPath><clipPath id="34dcc0a308"><path d="M 362.410156 103.042969 L 362.410156 119.695312 C 362.410156 125.90625 357.375 130.945312 351.160156 130.945312 L 20.414062 130.945312 C 14.203125 130.945312 9.164062 125.90625 9.164062 119.695312 L 9.164062 103.042969 C 9.164062 96.828125 14.203125 91.792969 20.414062 91.792969 L 351.160156 91.792969 C 357.375 91.792969 362.410156 96.828125 362.410156 103.042969 Z M 362.410156 103.042969 " clip-rule="nonzero"/></clipPath><clipPath id="d16b0ed5eb"><path d="M 170.511719 91.789062 L 208.765625 91.789062 L 208.765625 283.613281 L 170.511719 283.613281 Z M 170.511719 91.789062 " clip-rule="nonzero"/></clipPath><clipPath id="dc9b36adad"><path d="M 324.378906 113.140625 L 362.226562 113.140625 L 362.226562 148.5 L 324.378906 148.5 Z M 324.378906 113.140625 " clip-rule="nonzero"/></clipPath><clipPath id="74b06d8495"><path d="M 362.226562 119.890625 L 362.226562 141.75 C 362.226562 145.480469 359.203125 148.5 355.476562 148.5 L 331.140625 148.5 C 327.414062 148.5 324.390625 145.480469 324.390625 141.75 L 324.390625 119.890625 C 324.390625 116.164062 327.414062 113.140625 331.140625 113.140625 L 355.476562 113.140625 C 359.203125 113.140625 362.226562 116.164062 362.226562 119.890625 Z M 362.226562 119.890625 " clip-rule="nonzero"/></clipPath><clipPath id="242c8e0773"><path d="M 299.308594 118.835938 L 354.824219 118.835938 L 354.824219 148.507812 L 299.308594 148.507812 Z M 299.308594 118.835938 " clip-rule="nonzero"/></clipPath><clipPath id="6deeb47ff4"><path d="M 354.824219 125.585938 L 354.824219 141.757812 C 354.824219 145.484375 351.800781 148.507812 348.074219 148.507812 L 306.097656 148.507812 C 302.371094 148.507812 299.347656 145.484375 299.347656 141.757812 L 299.347656 125.585938 C 299.347656 121.859375 302.371094 118.835938 306.097656 118.835938 L 348.074219 118.835938 C 351.800781 118.835938 354.824219 121.859375 354.824219 125.585938 Z M 354.824219 125.585938 " clip-rule="nonzero"/></clipPath><clipPath id="22bc362926"><path d="M 299.316406 105.019531 L 362.222656 105.019531 L 362.222656 135.519531 L 299.316406 135.519531 Z M 299.316406 105.019531 " clip-rule="nonzero"/></clipPath><clipPath id="e1b742fe36"><path d="M 362.222656 111.769531 L 362.222656 128.769531 C 362.222656 132.5 359.203125 135.519531 355.472656 135.519531 L 306.09375 135.519531 C 302.367188 135.519531 299.34375 132.5 299.34375 128.769531 L 299.34375 111.769531 C 299.34375 108.042969 302.367188 105.019531 306.09375 105.019531 L 355.472656 105.019531 C 359.203125 105.019531 362.222656 108.042969 362.222656 111.769531 Z M 362.222656 111.769531 " clip-rule="nonzero"/></clipPath><clipPath id="3deb3613df"><path d="M 9.15625 105.027344 L 74.523438 105.027344 L 74.523438 134.695312 L 9.15625 134.695312 Z M 9.15625 105.027344 " clip-rule="nonzero"/></clipPath><clipPath id="58907a413e"><path d="M 74.523438 111.777344 L 74.523438 127.945312 C 74.523438 131.675781 71.503906 134.695312 67.773438 134.695312 L 15.917969 134.695312 C 12.191406 134.695312 9.167969 131.675781 9.167969 127.945312 L 9.167969 111.777344 C 9.167969 108.046875 12.191406 105.027344 15.917969 105.027344 L 67.773438 105.027344 C 71.503906 105.027344 74.523438 108.046875 74.523438 111.777344 Z M 74.523438 111.777344 " clip-rule="nonzero"/></clipPath><clipPath id="33c619066d"><path d="M 14.019531 117.011719 L 74.519531 117.011719 L 74.519531 146.683594 L 14.019531 146.683594 Z M 14.019531 117.011719 " clip-rule="nonzero"/></clipPath><clipPath id="e540e17060"><path d="M 74.519531 123.761719 L 74.519531 139.933594 C 74.519531 143.660156 71.5 146.683594 67.769531 146.683594 L 20.863281 146.683594 C 17.136719 146.683594 14.113281 143.660156 14.113281 139.933594 L 14.113281 123.761719 C 14.113281 120.035156 17.136719 117.011719 20.863281 117.011719 L 67.769531 117.011719 C 71.5 117.011719 74.519531 120.035156 74.519531 123.761719 Z M 74.519531 123.761719 " clip-rule="nonzero"/></clipPath><clipPath id="a111e1267b"><path d="M 9.171875 111.324219 L 30.511719 111.324219 L 30.511719 146.753906 L 9.171875 146.753906 Z M 9.171875 111.324219 " clip-rule="nonzero"/></clipPath><clipPath id="24aec6bb2e"><path d="M 30.511719 118.074219 L 30.511719 139.933594 C 30.511719 143.660156 27.492188 146.683594 23.761719 146.683594 L 15.921875 146.683594 C 12.195312 146.683594 9.171875 143.660156 9.171875 139.933594 L 9.171875 118.074219 C 9.171875 114.347656 12.195312 111.324219 15.921875 111.324219 L 23.761719 111.324219 C 27.492188 111.324219 30.511719 114.347656 30.511719 118.074219 Z M 30.511719 118.074219 " clip-rule="nonzero"/></clipPath><clipPath id="09f61ed448"><path d="M 338.847656 109.28125 L 362.410156 109.28125 L 362.410156 141.863281 L 338.847656 141.863281 Z M 338.847656 109.28125 " clip-rule="nonzero"/></clipPath><clipPath id="f3e67d002e"><path d="M 9.171875 105.019531 L 27.640625 105.019531 L 27.640625 137.132812 L 9.171875 137.132812 Z M 9.171875 105.019531 " clip-rule="nonzero"/></clipPath></defs><rect x="-37.5" width="450" fill="#ffffff" y="-37.499999" height="449.999989" fill-opacity="1"/><rect x="-37.5" width="450" fill="#ffffff" y="-37.499999" height="449.999989" fill-opacity="1"/><g clip-path="url(#169452558d)"><g clip-path="url(#34dcc0a308)"><path fill="#b2c89c" d="M 362.410156 91.792969 L 362.410156 130.945312 L 9.125 130.945312 L 9.125 91.792969 Z M 362.410156 91.792969 " fill-opacity="1" fill-rule="nonzero"/></g></g><g clip-path="url(#d16b0ed5eb)"><path fill="#b2c89c" d="M 170.511719 91.789062 L 208.765625 91.789062 L 208.765625 283.65625 L 170.511719 283.65625 Z M 170.511719 91.789062 " fill-opacity="1" fill-rule="nonzero"/></g><g fill="#dee4d2" fill-opacity="1"><g transform="translate(-5.639093, 281.565721)"><g><path d="M 23.625 0 L 23.625 -181.84375 L 101.25 -181.84375 C 112.4375 -181.84375 121.90625 -180.082031 129.65625 -176.5625 C 137.414062 -173.039062 143.285156 -168.023438 147.265625 -161.515625 C 151.242188 -155.003906 153.234375 -147.3125 153.234375 -138.4375 C 153.234375 -130.394531 151.285156 -123.304688 147.390625 -117.171875 C 143.492188 -111.035156 137.894531 -106.097656 130.59375 -102.359375 L 130.59375 -99.75 C 142.039062 -96.769531 150.875 -91.335938 157.09375 -83.453125 C 163.3125 -75.578125 166.421875 -65.921875 166.421875 -54.484375 C 166.421875 -37.066406 161.175781 -23.628906 150.6875 -14.171875 C 140.195312 -4.722656 124.628906 0 103.984375 0 Z M 93.78125 -109.328125 C 110.53125 -109.328125 118.90625 -116.875 118.90625 -131.96875 C 118.90625 -139.675781 116.832031 -145.414062 112.6875 -149.1875 C 108.539062 -152.96875 102.238281 -154.859375 93.78125 -154.859375 L 59.578125 -154.859375 L 59.578125 -109.328125 Z M 100.375 -28.484375 C 120.195312 -28.484375 130.109375 -37.476562 130.109375 -55.46875 C 130.109375 -73.550781 120.195312 -82.59375 100.375 -82.59375 L 59.578125 -82.59375 L 59.578125 -28.484375 Z M 100.375 -28.484375 "/></g></g></g><g fill="#dee4d2" fill-opacity="1"><g transform="translate(203.437359, 283.660913)"><g><path d="M 93.90625 -181.84375 C 106.925781 -181.84375 118.054688 -179.457031 127.296875 -174.6875 C 136.546875 -169.925781 143.535156 -163.253906 148.265625 -154.671875 C 152.992188 -146.085938 155.359375 -136.113281 155.359375 -124.75 C 155.359375 -113.394531 152.992188 -103.445312 148.265625 -94.90625 C 143.535156 -86.363281 136.546875 -79.707031 127.296875 -74.9375 C 118.054688 -70.164062 106.925781 -67.78125 93.90625 -67.78125 L 59.578125 -67.78125 L 59.578125 0 L 23.625 0 L 23.625 -181.84375 Z M 89.1875 -96.265625 C 109.164062 -96.265625 119.15625 -105.757812 119.15625 -124.75 C 119.15625 -143.820312 109.164062 -153.359375 89.1875 -153.359375 L 59.578125 -153.359375 L 59.578125 -96.265625 Z M 89.1875 -96.265625 "/></g></g></g><g clip-path="url(#dc9b36adad)"><g clip-path="url(#74b06d8495)"><path fill="#b2c89c" d="M 362.226562 113.140625 L 362.226562 148.5 L 324.378906 148.5 L 324.378906 113.140625 Z M 362.226562 113.140625 " fill-opacity="1" fill-rule="nonzero"/></g></g><g clip-path="url(#242c8e0773)"><g clip-path="url(#6deeb47ff4)"><path fill="#b2c89c" d="M 354.824219 118.835938 L 354.824219 148.507812 L 299.308594 148.507812 L 299.308594 118.835938 Z M 354.824219 118.835938 " fill-opacity="1" fill-rule="nonzero"/></g></g><g clip-path="url(#22bc362926)"><g clip-path="url(#e1b742fe36)"><path fill="#b2c89c" d="M 362.222656 105.019531 L 362.222656 135.519531 L 299.316406 135.519531 L 299.316406 105.019531 Z M 362.222656 105.019531 " fill-opacity="1" fill-rule="nonzero"/></g></g><g clip-path="url(#3deb3613df)"><g clip-path="url(#58907a413e)"><path fill="#b2c89c" d="M 74.523438 105.027344 L 74.523438 134.695312 L 9.15625 134.695312 L 9.15625 105.027344 Z M 74.523438 105.027344 " fill-opacity="1" fill-rule="nonzero"/></g></g><g clip-path="url(#33c619066d)"><g clip-path="url(#e540e17060)"><path fill="#b2c89c" d="M 74.519531 117.011719 L 74.519531 146.683594 L 14.136719 146.683594 L 14.136719 117.011719 Z M 74.519531 117.011719 " fill-opacity="1" fill-rule="nonzero"/></g></g><g clip-path="url(#a111e1267b)"><g clip-path="url(#24aec6bb2e)"><path fill="#b2c89c" d="M 30.511719 111.324219 L 30.511719 146.671875 L 9.171875 146.671875 L 9.171875 111.324219 Z M 30.511719 111.324219 " fill-opacity="1" fill-rule="nonzero"/></g></g><g clip-path="url(#09f61ed448)"><path fill="#b2c89c" d="M 362.410156 109.28125 L 362.410156 141.863281 L 338.847656 141.863281 L 338.847656 109.28125 Z M 362.410156 109.28125 " fill-opacity="1" fill-rule="nonzero"/></g><g clip-path="url(#f3e67d002e)"><path fill="#b2c89c" d="M 27.640625 105.019531 L 27.640625 137.125 L 9.171875 137.125 L 9.171875 105.019531 Z M 27.640625 105.019531 " fill-opacity="1" fill-rule="nonzero"/></g><g fill="#a67e7e" fill-opacity="1"><g transform="translate(276.979702, 282.363599)"><g><path d="M 21.09375 -16.96875 L 21.09375 -27.1875 L 26.453125 -27.1875 L 26.453125 0 L 21.09375 0 L 21.09375 -12.390625 L 8.90625 -12.390625 L 8.90625 0 L 3.53125 0 L 3.53125 -27.1875 L 8.90625 -27.1875 L 8.90625 -16.96875 Z M 21.09375 -16.96875 "/></g></g></g><g fill="#a67e7e" fill-opacity="1"><g transform="translate(306.983944, 282.363599)"><g><path d="M 14.421875 0.390625 C 10.671875 0.390625 7.890625 -0.5 6.078125 -2.28125 C 4.265625 -4.0625 3.359375 -6.695312 3.359375 -10.1875 L 3.359375 -27.1875 L 8.625 -27.1875 L 8.625 -10.234375 C 8.625 -8.242188 9.101562 -6.753906 10.0625 -5.765625 C 11.019531 -4.773438 12.472656 -4.28125 14.421875 -4.28125 C 18.273438 -4.28125 20.203125 -6.265625 20.203125 -10.234375 L 20.203125 -27.1875 L 25.46875 -27.1875 L 25.46875 -10.1875 C 25.46875 -6.695312 24.5625 -4.0625 22.75 -2.28125 C 20.9375 -0.5 18.160156 0.390625 14.421875 0.390625 Z M 14.421875 0.390625 "/></g></g></g><g fill="#a67e7e" fill-opacity="1"><g transform="translate(335.816284, 282.363599)"><g><path d="M 3.53125 0 L 3.53125 -27.1875 L 15.140625 -27.1875 C 16.816406 -27.1875 18.234375 -26.921875 19.390625 -26.390625 C 20.546875 -25.867188 21.421875 -25.117188 22.015625 -24.140625 C 22.617188 -23.171875 22.921875 -22.023438 22.921875 -20.703125 C 22.921875 -19.492188 22.628906 -18.429688 22.046875 -17.515625 C 21.460938 -16.597656 20.625 -15.863281 19.53125 -15.3125 L 19.53125 -14.921875 C 21.238281 -14.472656 22.554688 -13.660156 23.484375 -12.484375 C 24.421875 -11.304688 24.890625 -9.859375 24.890625 -8.140625 C 24.890625 -5.535156 24.101562 -3.523438 22.53125 -2.109375 C 20.96875 -0.703125 18.640625 0 15.546875 0 Z M 14.03125 -16.34375 C 16.53125 -16.34375 17.78125 -17.472656 17.78125 -19.734375 C 17.78125 -20.890625 17.46875 -21.75 16.84375 -22.3125 C 16.226562 -22.875 15.289062 -23.15625 14.03125 -23.15625 L 8.90625 -23.15625 L 8.90625 -16.34375 Z M 15.015625 -4.265625 C 17.972656 -4.265625 19.453125 -5.609375 19.453125 -8.296875 C 19.453125 -10.992188 17.972656 -12.34375 15.015625 -12.34375 L 8.90625 -12.34375 L 8.90625 -4.265625 Z M 15.015625 -4.265625 "/></g></g></g></svg>